<mxfile host="Electron" agent="Mozilla/5.0 (Windows NT 10.0; Win64; x64) AppleWebKit/537.36 (KHTML, like Gecko) draw.io/26.0.16 Chrome/132.0.6834.196 Electron/34.2.0 Safari/537.36" version="26.0.16">
  <diagram name="Page-1" id="nyLgzrifpB20zZ0bnMds">
    <mxGraphModel dx="1728" dy="997" grid="1" gridSize="10" guides="1" tooltips="1" connect="1" arrows="1" fold="1" page="1" pageScale="1" pageWidth="1169" pageHeight="827" math="0" shadow="0">
      <root>
        <mxCell id="0" />
        <mxCell id="1" parent="0" />
        <mxCell id="l6qxvTY5EW9hGLy1fR2X-1" value="./src/" style="rounded=0;whiteSpace=wrap;html=1;fontFamily=Courier New;" vertex="1" parent="1">
          <mxGeometry x="218" y="170" width="120" height="60" as="geometry" />
        </mxCell>
        <mxCell id="l6qxvTY5EW9hGLy1fR2X-2" value="Source Files" style="text;html=1;align=center;verticalAlign=middle;whiteSpace=wrap;rounded=0;fontStyle=1;fontSize=16;" vertex="1" parent="1">
          <mxGeometry x="228" y="110" width="100" height="30" as="geometry" />
        </mxCell>
        <mxCell id="l6qxvTY5EW9hGLy1fR2X-3" value="01_triangles/" style="rounded=0;whiteSpace=wrap;html=1;fontFamily=Courier New;" vertex="1" parent="1">
          <mxGeometry x="418" y="80" width="120" height="60" as="geometry" />
        </mxCell>
        <mxCell id="l6qxvTY5EW9hGLy1fR2X-4" value="02_shaders/" style="rounded=0;whiteSpace=wrap;html=1;fontFamily=Courier New;" vertex="1" parent="1">
          <mxGeometry x="418" y="170" width="120" height="60" as="geometry" />
        </mxCell>
        <mxCell id="l6qxvTY5EW9hGLy1fR2X-5" value="03_textures/" style="rounded=0;whiteSpace=wrap;html=1;fontFamily=Courier New;" vertex="1" parent="1">
          <mxGeometry x="418" y="260" width="120" height="60" as="geometry" />
        </mxCell>
        <mxCell id="l6qxvTY5EW9hGLy1fR2X-6" value="" style="endArrow=classic;html=1;rounded=0;entryX=0;entryY=0.5;entryDx=0;entryDy=0;" edge="1" parent="1" target="l6qxvTY5EW9hGLy1fR2X-3">
          <mxGeometry width="50" height="50" relative="1" as="geometry">
            <mxPoint x="338" y="200" as="sourcePoint" />
            <mxPoint x="388" y="150" as="targetPoint" />
            <Array as="points">
              <mxPoint x="378" y="200" />
              <mxPoint x="378" y="110" />
            </Array>
          </mxGeometry>
        </mxCell>
        <mxCell id="l6qxvTY5EW9hGLy1fR2X-7" value="" style="endArrow=classic;html=1;rounded=0;entryX=0;entryY=0.5;entryDx=0;entryDy=0;" edge="1" parent="1" target="l6qxvTY5EW9hGLy1fR2X-4">
          <mxGeometry width="50" height="50" relative="1" as="geometry">
            <mxPoint x="378" y="200" as="sourcePoint" />
            <mxPoint x="648" y="410" as="targetPoint" />
          </mxGeometry>
        </mxCell>
        <mxCell id="l6qxvTY5EW9hGLy1fR2X-8" value="" style="endArrow=classic;html=1;rounded=0;entryX=0;entryY=0.5;entryDx=0;entryDy=0;" edge="1" parent="1" target="l6qxvTY5EW9hGLy1fR2X-5">
          <mxGeometry width="50" height="50" relative="1" as="geometry">
            <mxPoint x="378" y="200" as="sourcePoint" />
            <mxPoint x="648" y="410" as="targetPoint" />
            <Array as="points">
              <mxPoint x="378" y="290" />
            </Array>
          </mxGeometry>
        </mxCell>
        <mxCell id="l6qxvTY5EW9hGLy1fR2X-9" value="" style="endArrow=classic;html=1;rounded=0;exitX=1;exitY=0.5;exitDx=0;exitDy=0;entryX=0;entryY=0.5;entryDx=0;entryDy=0;" edge="1" parent="1" target="l6qxvTY5EW9hGLy1fR2X-10">
          <mxGeometry width="50" height="50" relative="1" as="geometry">
            <mxPoint x="738" y="239.66" as="sourcePoint" />
            <mxPoint x="818" y="239.66" as="targetPoint" />
            <Array as="points">
              <mxPoint x="778" y="240" />
              <mxPoint x="778" y="190" />
            </Array>
          </mxGeometry>
        </mxCell>
        <mxCell id="l6qxvTY5EW9hGLy1fR2X-10" value="main.cpp" style="rounded=0;whiteSpace=wrap;html=1;fontFamily=Courier New;" vertex="1" parent="1">
          <mxGeometry x="818" y="160" width="120" height="60" as="geometry" />
        </mxCell>
        <mxCell id="l6qxvTY5EW9hGLy1fR2X-11" value="header.hpp" style="rounded=0;whiteSpace=wrap;html=1;fontFamily=Courier New;" vertex="1" parent="1">
          <mxGeometry x="818" y="260" width="120" height="60" as="geometry" />
        </mxCell>
        <mxCell id="l6qxvTY5EW9hGLy1fR2X-12" value="" style="endArrow=classic;html=1;rounded=0;entryX=0;entryY=0.5;entryDx=0;entryDy=0;" edge="1" parent="1" target="l6qxvTY5EW9hGLy1fR2X-11">
          <mxGeometry width="50" height="50" relative="1" as="geometry">
            <mxPoint x="778" y="240" as="sourcePoint" />
            <mxPoint x="848" y="450" as="targetPoint" />
            <Array as="points">
              <mxPoint x="778" y="290" />
            </Array>
          </mxGeometry>
        </mxCell>
        <mxCell id="l6qxvTY5EW9hGLy1fR2X-13" value="question/" style="rounded=0;whiteSpace=wrap;html=1;fontFamily=Courier New;" vertex="1" parent="1">
          <mxGeometry x="618" y="120" width="120" height="60" as="geometry" />
        </mxCell>
        <mxCell id="l6qxvTY5EW9hGLy1fR2X-14" value="class/" style="rounded=0;whiteSpace=wrap;html=1;fontFamily=Courier New;" vertex="1" parent="1">
          <mxGeometry x="618" y="210" width="120" height="60" as="geometry" />
        </mxCell>
        <mxCell id="l6qxvTY5EW9hGLy1fR2X-15" value="" style="endArrow=classic;html=1;rounded=0;exitX=1;exitY=0.5;exitDx=0;exitDy=0;entryX=0;entryY=0.5;entryDx=0;entryDy=0;" edge="1" parent="1">
          <mxGeometry width="50" height="50" relative="1" as="geometry">
            <mxPoint x="538" y="199.66" as="sourcePoint" />
            <mxPoint x="618" y="150" as="targetPoint" />
            <Array as="points">
              <mxPoint x="578" y="200" />
              <mxPoint x="578" y="150" />
            </Array>
          </mxGeometry>
        </mxCell>
        <mxCell id="l6qxvTY5EW9hGLy1fR2X-16" value="" style="endArrow=classic;html=1;rounded=0;entryX=0;entryY=0.5;entryDx=0;entryDy=0;" edge="1" parent="1">
          <mxGeometry width="50" height="50" relative="1" as="geometry">
            <mxPoint x="578" y="200" as="sourcePoint" />
            <mxPoint x="618" y="250" as="targetPoint" />
            <Array as="points">
              <mxPoint x="578" y="250" />
            </Array>
          </mxGeometry>
        </mxCell>
        <mxCell id="l6qxvTY5EW9hGLy1fR2X-17" value="./build/" style="rounded=0;whiteSpace=wrap;html=1;fontFamily=Courier New;" vertex="1" parent="1">
          <mxGeometry x="218" y="530" width="120" height="60" as="geometry" />
        </mxCell>
        <mxCell id="l6qxvTY5EW9hGLy1fR2X-18" value="Build Files" style="text;html=1;align=center;verticalAlign=middle;whiteSpace=wrap;rounded=0;fontStyle=1;fontSize=16;" vertex="1" parent="1">
          <mxGeometry x="228" y="470" width="100" height="30" as="geometry" />
        </mxCell>
        <mxCell id="l6qxvTY5EW9hGLy1fR2X-19" value="..." style="rounded=0;whiteSpace=wrap;html=1;fontFamily=Courier New;" vertex="1" parent="1">
          <mxGeometry x="418" y="410" width="120" height="60" as="geometry" />
        </mxCell>
        <mxCell id="l6qxvTY5EW9hGLy1fR2X-20" value="02_shaders_&lt;div&gt;class.exe&lt;/div&gt;" style="rounded=0;whiteSpace=wrap;html=1;fontFamily=Courier New;" vertex="1" parent="1">
          <mxGeometry x="418" y="570" width="120" height="60" as="geometry" />
        </mxCell>
        <mxCell id="l6qxvTY5EW9hGLy1fR2X-21" value="..." style="rounded=0;whiteSpace=wrap;html=1;fontFamily=Courier New;" vertex="1" parent="1">
          <mxGeometry x="418" y="650" width="120" height="60" as="geometry" />
        </mxCell>
        <mxCell id="l6qxvTY5EW9hGLy1fR2X-22" value="" style="endArrow=classic;html=1;rounded=0;entryX=0;entryY=0.5;entryDx=0;entryDy=0;" edge="1" parent="1" target="l6qxvTY5EW9hGLy1fR2X-19">
          <mxGeometry width="50" height="50" relative="1" as="geometry">
            <mxPoint x="338" y="560" as="sourcePoint" />
            <mxPoint x="388" y="510" as="targetPoint" />
            <Array as="points">
              <mxPoint x="378" y="560" />
              <mxPoint x="378" y="440" />
            </Array>
          </mxGeometry>
        </mxCell>
        <mxCell id="l6qxvTY5EW9hGLy1fR2X-23" value="" style="endArrow=classic;html=1;rounded=0;entryX=0;entryY=0.5;entryDx=0;entryDy=0;" edge="1" parent="1" target="l6qxvTY5EW9hGLy1fR2X-27">
          <mxGeometry width="50" height="50" relative="1" as="geometry">
            <mxPoint x="378" y="520" as="sourcePoint" />
            <mxPoint x="648" y="770" as="targetPoint" />
          </mxGeometry>
        </mxCell>
        <mxCell id="l6qxvTY5EW9hGLy1fR2X-27" value="02_shaders_&lt;div&gt;question.exe&lt;/div&gt;" style="rounded=0;whiteSpace=wrap;html=1;fontFamily=Courier New;" vertex="1" parent="1">
          <mxGeometry x="418" y="490" width="120" height="60" as="geometry" />
        </mxCell>
        <mxCell id="l6qxvTY5EW9hGLy1fR2X-33" value="" style="endArrow=classic;html=1;rounded=0;entryX=0;entryY=0.5;entryDx=0;entryDy=0;" edge="1" parent="1">
          <mxGeometry width="50" height="50" relative="1" as="geometry">
            <mxPoint x="338" y="560" as="sourcePoint" />
            <mxPoint x="418" y="680" as="targetPoint" />
            <Array as="points">
              <mxPoint x="378" y="560" />
              <mxPoint x="378" y="680" />
            </Array>
          </mxGeometry>
        </mxCell>
        <mxCell id="l6qxvTY5EW9hGLy1fR2X-34" value="" style="endArrow=classic;html=1;rounded=0;entryX=0;entryY=0.5;entryDx=0;entryDy=0;" edge="1" parent="1">
          <mxGeometry width="50" height="50" relative="1" as="geometry">
            <mxPoint x="378" y="599.659655172414" as="sourcePoint" />
            <mxPoint x="418" y="599.659655172414" as="targetPoint" />
          </mxGeometry>
        </mxCell>
      </root>
    </mxGraphModel>
  </diagram>
</mxfile>
